<svg width="195" height="127" viewBox="0 0 195 127" fill="none" xmlns="http://www.w3.org/2000/svg">
<path d="M97.4102 126.545L118.419 0H159.262C168.242 0 175.471 1.60653 180.95 4.8196C186.47 8.03267 190.28 12.5021 192.381 18.228C194.523 23.9126 194.997 30.4624 193.802 37.8771C192.566 45.2095 189.93 51.6974 185.893 57.3409C181.897 62.9844 176.625 67.4126 170.075 70.6257C163.525 73.7976 155.801 75.3835 146.904 75.3835H112.178L113.97 64.8175H148.387C155.019 64.8175 160.703 63.7259 165.441 61.5426C170.178 59.3594 173.968 56.2493 176.81 52.2124C179.652 48.1754 181.527 43.397 182.433 37.8771C183.339 32.3161 183.03 27.4759 181.506 23.3565C180.023 19.2372 177.263 16.0447 173.226 13.7791C169.23 11.5135 163.896 10.3807 157.223 10.3807H128.243L108.965 126.545H97.4102ZM162.66 69.4517L184.348 126.545H171.064L149.746 69.4517H162.66Z" fill="#C0B3A7"/>
<path d="M0.556108 126.545V113.817L67.1037 16.4361H0V0H90.4602V12.7287L23.9126 110.109H91.0163V126.545H0.556108Z" fill="#C0B3A7"/>
</svg>
