<svg width="343" height="32" viewBox="0 0 343 32" fill="none" xmlns="http://www.w3.org/2000/svg">
<path d="M339.126 11.9325C338.9 11.2196 338.596 10.5811 338.213 10.017C337.839 9.44505 337.39 8.95931 336.868 8.55974C336.345 8.15234 335.748 7.84288 335.077 7.63134C334.414 7.41981 333.685 7.31404 332.889 7.31404C331.539 7.31404 330.322 7.66268 329.238 8.35996C328.154 9.05724 327.295 10.0797 326.663 11.4272C326.039 12.7669 325.727 14.4083 325.727 16.3513C325.727 18.3021 326.043 19.9513 326.675 21.2988C327.307 22.6464 328.173 23.6688 329.273 24.3661C330.373 25.0633 331.625 25.412 333.029 25.412C334.332 25.412 335.467 25.1456 336.435 24.6129C337.41 24.0801 338.163 23.328 338.693 22.3565C339.231 21.3772 339.501 20.2255 339.501 18.9014L340.437 19.0777H333.579V16.081H343V18.8192C343 20.8405 342.57 22.5954 341.712 24.084C340.862 25.5648 339.684 26.7086 338.178 27.5156C336.68 28.3225 334.964 28.726 333.029 28.726C330.861 28.726 328.957 28.2246 327.319 27.2218C325.688 26.2189 324.417 24.797 323.504 22.9558C322.591 21.1069 322.135 18.9132 322.135 16.3748C322.135 14.4553 322.4 12.7317 322.931 11.2039C323.461 9.67617 324.206 8.37954 325.166 7.31404C326.133 6.2407 327.268 5.42198 328.571 4.85789C329.882 4.28596 331.313 4 332.866 4C334.161 4 335.366 4.19195 336.482 4.57584C337.605 4.95974 338.603 5.50425 339.477 6.20936C340.359 6.91447 341.088 7.75278 341.666 8.72427C342.243 9.68793 342.633 10.7573 342.836 11.9325H339.126Z" fill="#F3F0EB"/>
<path d="M318.951 4.32812V28.396H315.628L303.446 10.7447H303.223V28.396H299.607V4.32812H302.954L315.148 22.003H315.37V4.32812H318.951Z" fill="#F3F0EB"/>
<path d="M295.66 4.32812V28.396H292.044V4.32812H295.66Z" fill="#F3F0EB"/>
<path d="M274.762 28.396V4.32812H278.378V25.27H289.237V28.396H274.762Z" fill="#F3F0EB"/>
<path d="M256.225 28.396V4.32812H271.25V7.45413H259.841V14.7873H270.466V17.9016H259.841V25.27H271.39V28.396H256.225Z" fill="#F3F0EB"/>
<path d="M241.519 28.396H233.761V4.32812H241.765C244.113 4.32812 246.13 4.80995 247.815 5.77361C249.5 6.72943 250.791 8.1044 251.688 9.89853C252.593 11.6848 253.046 13.8276 253.046 16.3268C253.046 18.8339 252.589 20.9884 251.677 22.7904C250.772 24.5923 249.461 25.9791 247.745 26.9506C246.028 27.9142 243.953 28.396 241.519 28.396ZM237.377 25.223H241.32C243.146 25.223 244.663 24.8783 245.872 24.1889C247.082 23.4916 247.987 22.4848 248.587 21.1686C249.188 19.8446 249.488 18.2306 249.488 16.3268C249.488 14.4387 249.188 12.8365 248.587 11.5203C247.994 10.2041 247.109 9.20517 245.931 8.52356C244.753 7.84195 243.29 7.50114 241.543 7.50114H237.377V25.223Z" fill="#F3F0EB"/>
<path d="M230.571 16.363C230.571 18.9328 230.103 21.1421 229.167 22.9911C228.23 24.8322 226.947 26.2503 225.317 27.2453C223.694 28.2324 221.849 28.726 219.781 28.726C217.706 28.726 215.853 28.2324 214.223 27.2453C212.6 26.2503 211.321 24.8283 210.385 22.9793C209.449 21.1304 208.98 18.9249 208.98 16.363C208.98 13.7933 209.449 11.5878 210.385 9.74668C211.321 7.89772 212.6 6.47965 214.223 5.49249C215.853 4.4975 217.706 4 219.781 4C221.849 4 223.694 4.4975 225.317 5.49249C226.947 6.47965 228.23 7.89772 229.167 9.74668C230.103 11.5878 230.571 13.7933 230.571 16.363ZM226.99 16.363C226.99 14.4044 226.674 12.7552 226.042 11.4155C225.418 10.0679 224.56 9.04941 223.468 8.35996C222.383 7.66268 221.155 7.31404 219.781 7.31404C218.401 7.31404 217.168 7.66268 216.084 8.35996C214.999 9.04941 214.141 10.0679 213.509 11.4155C212.885 12.7552 212.573 14.4044 212.573 16.363C212.573 18.3217 212.885 19.9748 213.509 21.3223C214.141 22.662 214.999 23.6805 216.084 24.3778C217.168 25.0673 218.401 25.412 219.781 25.412C221.155 25.412 222.383 25.0673 223.468 24.3778C224.56 23.6805 225.418 22.662 226.042 21.3223C226.674 19.9748 226.99 18.3217 226.99 16.363Z" fill="#F3F0EB"/>
<path d="M181.497 4.32812H185.885L193.515 23.0372H193.796L201.426 4.32812H205.814V28.396H202.374V10.9797H202.151L195.083 28.3608H192.228L185.16 10.968H184.937V28.396H181.497V4.32812Z" fill="#F3F0EB"/>
<path d="M162.302 28.396L166.28 4.32812H180.182L179.855 6.30244H168.141L166.643 15.3632H177.62L177.292 17.3375H166.316L164.818 26.4217H176.766L176.438 28.396H162.302Z" fill="#F3F0EB"/>
<path d="M142.83 28.396L146.809 4.32812H154.544C156.245 4.32812 157.614 4.63367 158.651 5.24477C159.697 5.85587 160.418 6.70593 160.816 7.79494C161.222 8.87611 161.312 10.1218 161.085 11.532C160.851 12.9266 160.352 14.1606 159.587 15.2339C158.831 16.3072 157.832 17.1495 156.592 17.7606C155.351 18.3638 153.889 18.6655 152.203 18.6655H145.627L145.966 16.6559H152.484C153.74 16.6559 154.817 16.4483 155.714 16.033C156.611 15.6178 157.329 15.0263 157.867 14.2585C158.406 13.4907 158.76 12.5819 158.932 11.532C159.104 10.4744 159.045 9.55381 158.757 8.77035C158.476 7.98689 157.953 7.3797 157.188 6.9488C156.432 6.5179 155.421 6.30244 154.158 6.30244H148.669L145.018 28.396H142.83ZM155.187 17.5373L159.295 28.396H156.779L152.742 17.5373H155.187Z" fill="#F3F0EB"/>
<path d="M132.427 4.32812V28.396H128.812V4.32812H132.427Z" fill="#F3F0EB"/>
<path d="M108.248 28.396V4.32812H111.864V15.8215H112.157L122.209 4.32812H126.761L117.095 15.1634L126.796 28.396H122.443L114.696 17.643L111.864 20.9101V28.396H108.248Z" fill="#F3F0EB"/>
<path d="M88.517 28.396H84.6787L93.3031 4.32812H97.4808L106.105 28.396H102.267L95.4914 8.69983H95.3042L88.517 28.396ZM89.1606 18.971H101.612V22.0265H89.1606V18.971Z" fill="#F3F0EB"/>
<path d="M66.5713 28.396V4.32812H75.1138C76.9705 4.32812 78.5113 4.64934 79.7361 5.29178C80.9687 5.93422 81.8893 6.82345 82.4978 7.95946C83.1063 9.08765 83.4106 10.3921 83.4106 11.8728C83.4106 13.3458 83.1024 14.6424 82.4861 15.7627C81.8776 16.8752 80.957 17.741 79.7244 18.3599C78.4996 18.9788 76.9588 19.2883 75.1021 19.2883H68.6309V16.1623H74.7744C75.9446 16.1623 76.8964 15.9939 77.6297 15.657C78.3709 15.3201 78.9131 14.8304 79.2563 14.188C79.5996 13.5455 79.7712 12.7738 79.7712 11.8728C79.7712 10.964 79.5957 10.1767 79.2446 9.51072C78.9014 8.84477 78.3592 8.33553 77.618 7.98297C76.8847 7.62258 75.9212 7.44238 74.7276 7.44238H70.1872V28.396H66.5713ZM78.4021 17.5373L84.3233 28.396H80.2042L74.4 17.5373H78.4021Z" fill="#F3F0EB"/>
<path d="M59.0044 4.32812H62.632V20.1579C62.632 21.8424 62.2381 23.3349 61.4501 24.6354C60.6622 25.9281 59.5544 26.9466 58.1267 27.6909C56.6991 28.4274 55.0257 28.7956 53.1065 28.7956C51.1952 28.7956 49.5257 28.4274 48.0981 27.6909C46.6704 26.9466 45.5626 25.9281 44.7747 24.6354C43.9867 23.3349 43.5928 21.8424 43.5928 20.1579V4.32812H47.2087V19.8642C47.2087 20.9532 47.4467 21.9207 47.9225 22.7669C48.4062 23.613 49.0888 24.2789 49.9704 24.7647C50.852 25.2426 51.8973 25.4816 53.1065 25.4816C54.3236 25.4816 55.3728 25.2426 56.2544 24.7647C57.1438 24.2789 57.8225 23.613 58.2906 22.7669C58.7664 21.9207 59.0044 20.9532 59.0044 19.8642V4.32812Z" fill="#F3F0EB"/>
<path d="M20.4531 28.396V4.32812H24.0691V14.7873H36.0169V4.32812H39.6445V28.396H36.0169V17.9016H24.0691V28.396H20.4531Z" fill="#F3F0EB"/>
<path d="M0.105319 28.396V25.9751L12.7084 7.45413H0V4.32812H17.1318V6.74902L4.5287 25.27H17.2371V28.396H0.105319Z" fill="#F3F0EB"/>
</svg>
