<svg width="342" height="27" viewBox="0 0 342 27" fill="none" xmlns="http://www.w3.org/2000/svg">
<path d="M337.873 8.60408C337.648 7.89678 337.345 7.26331 336.964 6.70369C336.591 6.1363 336.144 5.6544 335.623 5.258C335.103 4.85383 334.508 4.54681 333.839 4.33695C333.179 4.12709 332.452 4.02216 331.659 4.02216C330.315 4.02216 329.102 4.36804 328.022 5.0598C326.941 5.75156 326.086 6.76587 325.457 8.10275C324.835 9.43186 324.524 11.0602 324.524 12.9878C324.524 14.9232 324.839 16.5593 325.468 17.8962C326.098 19.233 326.961 20.2474 328.057 20.9391C329.153 21.6309 330.4 21.9767 331.799 21.9767C333.097 21.9767 334.228 21.7125 335.192 21.1839C336.163 20.6554 336.914 19.9093 337.442 18.9455C337.978 17.9739 338.247 16.8313 338.247 15.5178L339.179 15.6926H332.347V12.7196H341.733V15.4361C341.733 17.4415 341.305 19.1825 340.45 20.6593C339.603 22.1283 338.429 23.2631 336.929 24.0637C335.437 24.8642 333.727 25.2645 331.799 25.2645C329.638 25.2645 327.742 24.7671 326.11 23.7722C324.485 22.7773 323.218 21.3666 322.309 19.5401C321.4 17.7057 320.945 15.5294 320.945 13.0111C320.945 11.1068 321.209 9.39688 321.738 7.88123C322.266 6.36559 323.008 5.07923 323.964 4.02216C324.928 2.95732 326.059 2.14509 327.357 1.58547C328.663 1.01807 330.089 0.734375 331.636 0.734375C332.926 0.734375 334.127 0.924803 335.239 1.30566C336.358 1.68651 337.353 2.2267 338.223 2.92623C339.102 3.62576 339.828 4.45743 340.403 5.42122C340.979 6.37724 341.367 7.4382 341.569 8.60408H337.873Z" fill="#1B1407"/>
<path d="M317.773 1.05957V24.9368H314.461L302.325 7.42529H302.103V24.9368H298.5V1.05957H301.835L313.983 18.5944H314.205V1.05957H317.773Z" fill="#1B1407"/>
<path d="M294.568 1.05957V24.9368H290.965V1.05957H294.568Z" fill="#1B1407"/>
<path d="M273.747 24.9368V1.05957H277.349V21.8356H288.169V24.9368H273.747Z" fill="#1B1407"/>
<path d="M255.278 24.9368V1.05957H270.248V4.16082H258.881V11.4359H269.467V14.5255H258.881V21.8356H270.388V24.9368H255.278Z" fill="#1B1407"/>
<path d="M240.627 24.9368H232.897V1.05957H240.872C243.212 1.05957 245.221 1.53758 246.9 2.49361C248.579 3.44186 249.865 4.80594 250.759 6.58585C251.66 8.35799 252.111 10.4838 252.111 12.9632C252.111 15.4504 251.657 17.5879 250.747 19.3756C249.845 21.1633 248.54 22.539 246.83 23.5028C245.12 24.4588 243.052 24.9368 240.627 24.9368ZM236.5 21.789H240.429C242.248 21.789 243.76 21.447 244.964 20.763C246.169 20.0712 247.071 19.0724 247.669 17.7667C248.268 16.4531 248.567 14.852 248.567 12.9632C248.567 11.09 248.268 9.50056 247.669 8.19477C247.078 6.88898 246.196 5.89798 245.023 5.22177C243.849 4.54556 242.392 4.20745 240.651 4.20745H236.5V21.789Z" fill="#1B1407"/>
<path d="M229.719 12.9995C229.719 15.5488 229.252 17.7407 228.319 19.575C227.387 21.4016 226.108 22.8084 224.484 23.7955C222.867 24.7749 221.029 25.2645 218.969 25.2645C216.902 25.2645 215.056 24.7749 213.431 23.7955C211.814 22.8084 210.54 21.3977 209.607 19.5634C208.674 17.729 208.208 15.5411 208.208 12.9995C208.208 10.4501 208.674 8.26209 209.607 6.43554C210.54 4.60122 211.814 3.19439 213.431 2.21505C215.056 1.22793 216.902 0.734375 218.969 0.734375C221.029 0.734375 222.867 1.22793 224.484 2.21505C226.108 3.19439 227.387 4.60122 228.319 6.43554C229.252 8.26209 229.719 10.4501 229.719 12.9995ZM226.151 12.9995C226.151 11.0563 225.836 9.4202 225.207 8.09109C224.585 6.75421 223.73 5.74378 222.642 5.0598C221.561 4.36804 220.337 4.02216 218.969 4.02216C217.593 4.02216 216.365 4.36804 215.285 5.0598C214.205 5.74378 213.35 6.75421 212.72 8.09109C212.098 9.4202 211.787 11.0563 211.787 12.9995C211.787 14.9426 212.098 16.5826 212.72 17.9195C213.35 19.2486 214.205 20.259 215.285 20.9508C216.365 21.6348 217.593 21.9767 218.969 21.9767C220.337 21.9767 221.561 21.6348 222.642 20.9508C223.73 20.259 224.585 19.2486 225.207 17.9195C225.836 16.5826 226.151 14.9426 226.151 12.9995Z" fill="#1B1407"/>
<path d="M180.827 1.05957H185.199L192.8 19.6204H193.08L200.682 1.05957H205.054V24.9368H201.626V7.65846H201.404L194.363 24.9019H191.518L184.476 7.6468H184.254V24.9368H180.827V1.05957Z" fill="#1B1407"/>
<path d="M161.702 24.9368L165.666 1.05957H179.516L179.19 3.01825H167.519L166.027 12.0072H176.963L176.637 13.9659H165.701L164.208 22.9782H176.112L175.786 24.9368H161.702Z" fill="#1B1407"/>
<path d="M142.303 24.9368L146.267 1.05957H153.973C155.668 1.05957 157.032 1.3627 158.065 1.96896C159.107 2.57522 159.826 3.41854 160.222 4.49892C160.627 5.57153 160.716 6.80737 160.49 8.20643C160.257 9.58994 159.76 10.8141 158.998 11.879C158.244 12.9438 157.249 13.7793 156.014 14.3856C154.778 14.9841 153.32 15.2833 151.641 15.2833H145.089L145.427 13.2897H151.921C153.173 13.2897 154.245 13.0837 155.139 12.6718C156.033 12.2598 156.748 11.673 157.284 10.9113C157.821 10.1496 158.174 9.24795 158.345 8.20643C158.516 7.15713 158.458 6.24386 158.17 5.4666C157.891 4.68935 157.37 4.08698 156.608 3.65949C155.854 3.232 154.848 3.01825 153.588 3.01825H148.12L144.483 24.9368H142.303ZM154.614 14.1641L158.707 24.9368H156.2L152.178 14.1641H154.614Z" fill="#1B1407"/>
<path d="M131.939 1.05957V24.9368H128.336V1.05957H131.939Z" fill="#1B1407"/>
<path d="M107.848 24.9368V1.05957H111.45V12.4619H111.742L121.757 1.05957H126.292L116.662 11.809L126.327 24.9368H121.99L114.272 14.269L111.45 17.5102V24.9368H107.848Z" fill="#1B1407"/>
<path d="M88.1898 24.9368H84.3657L92.9583 1.05957H97.1205L105.713 24.9368H101.889L95.1385 5.39665H94.9519L88.1898 24.9368ZM88.8311 15.5865H101.236V18.6178H88.8311V15.5865Z" fill="#1B1407"/>
<path d="M66.3252 24.9368V1.05957H74.8361C76.686 1.05957 78.2211 1.37824 79.4414 2.01559C80.6694 2.65294 81.5866 3.53513 82.1929 4.66215C82.7991 5.78139 83.1022 7.07552 83.1022 8.54453C83.1022 10.0058 82.7952 11.2921 82.1812 12.4036C81.5749 13.5073 80.6578 14.3662 79.4297 14.9802C78.2094 15.5942 76.6743 15.9012 74.8245 15.9012H68.3771V12.8H74.498C75.6639 12.8 76.6122 12.6329 77.3428 12.2987C78.0812 11.9645 78.6214 11.4787 78.9634 10.8413C79.3053 10.204 79.4763 9.43838 79.4763 8.54453C79.4763 7.64292 79.3015 6.86178 78.9517 6.20111C78.6097 5.54044 78.0695 5.03523 77.3311 4.68547C76.6005 4.32793 75.6406 4.14916 74.4514 4.14916H69.9278V24.9368H66.3252ZM78.1123 14.1641L84.0116 24.9368H79.9077L74.1249 14.1641H78.1123Z" fill="#1B1407"/>
<path d="M58.7863 1.05957H62.4005V16.764C62.4005 18.4351 62.008 19.9158 61.223 21.206C60.438 22.4885 59.3343 23.4989 57.9119 24.2373C56.4895 24.9679 54.8223 25.3332 52.9103 25.3332C51.006 25.3332 49.3427 24.9679 47.9203 24.2373C46.4979 23.4989 45.3942 22.4885 44.6092 21.206C43.8242 19.9158 43.4316 18.4351 43.4316 16.764V1.05957H47.0342V16.4725C47.0342 17.5529 47.2713 18.5128 47.7454 19.3523C48.2273 20.1917 48.9074 20.8524 49.7857 21.3343C50.664 21.8084 51.7055 22.0454 52.9103 22.0454C54.1228 22.0454 55.1682 21.8084 56.0465 21.3343C56.9326 20.8524 57.6088 20.1917 58.0751 19.3523C58.5492 18.5128 58.7863 17.5529 58.7863 16.4725V1.05957Z" fill="#1B1407"/>
<path d="M20.3774 24.9368V1.05957H23.98V11.4359H35.8837V1.05957H39.4979V24.9368H35.8837V14.5255H23.98V24.9368H20.3774Z" fill="#1B1407"/>
<path d="M0.104929 24.9368V22.5351L12.6615 4.16082H0V1.05957H17.0685V3.46129L4.51196 21.8356H17.1734V24.9368H0.104929Z" fill="#1B1407"/>
</svg>
