<svg width="664" height="50" viewBox="0 0 664 50" fill="none" xmlns="http://www.w3.org/2000/svg">
<path d="M655.989 16.0858C655.551 14.7126 654.963 13.4827 654.223 12.3962C653.499 11.2946 652.631 10.359 651.62 9.58935C650.609 8.80464 649.455 8.20856 648.157 7.80112C646.874 7.39367 645.463 7.18995 643.924 7.18995C641.313 7.18995 638.959 7.86148 636.862 9.20454C634.764 10.5476 633.104 12.5169 631.882 15.1125C630.674 17.693 630.071 20.8544 630.071 24.5969C630.071 28.3545 630.682 31.531 631.904 34.1266C633.127 36.7222 634.802 38.6915 636.929 40.0345C639.057 41.3776 641.479 42.0491 644.196 42.0491C646.716 42.0491 648.911 41.5361 650.783 40.5099C652.669 39.4837 654.125 38.035 655.151 36.1638C656.193 34.2775 656.713 32.0592 656.713 29.5089L658.524 29.8484H645.259V24.0763H663.481V29.3504C663.481 33.2438 662.651 36.6241 660.991 39.4913C659.346 42.3434 657.068 44.5466 654.155 46.101C651.258 47.6553 647.938 48.4324 644.196 48.4324C640 48.4324 636.318 47.4666 633.149 45.5351C629.995 43.6035 627.536 40.8645 625.77 37.3182C624.004 33.7569 623.122 29.5315 623.122 24.6422C623.122 20.945 623.635 17.6251 624.661 14.6824C625.687 11.7398 627.128 9.24226 628.984 7.18995C630.856 5.12254 633.051 3.54558 635.571 2.45906C638.107 1.35745 640.876 0.806641 643.879 0.806641C646.384 0.806641 648.715 1.17636 650.873 1.9158C653.046 2.65523 654.978 3.70403 656.668 5.06218C658.373 6.42033 659.784 8.03502 660.901 9.90625C662.018 11.7624 662.772 13.8223 663.164 16.0858H655.989Z" fill="#1B1407"/>
<path d="M616.962 1.4375V47.7957H610.533L586.969 13.7967H586.539V47.7957H579.545V1.4375H586.019L609.605 35.4818H610.035V1.4375H616.962Z" fill="#1B1407"/>
<path d="M571.91 1.4375V47.7957H564.915V1.4375H571.91Z" fill="#1B1407"/>
<path d="M531.484 47.7957V1.4375H538.479V41.7746H559.485V47.7957H531.484Z" fill="#1B1407"/>
<path d="M495.627 47.7957V1.4375H524.692V7.45863H502.622V21.5834H523.175V27.5819H502.622V41.7746H524.963V47.7957H495.627Z" fill="#1B1407"/>
<path d="M467.182 47.7957H452.175V1.4375H467.658C472.2 1.4375 476.101 2.36557 479.36 4.22171C482.62 6.06276 485.118 8.71115 486.853 12.1669C488.603 15.6075 489.479 19.7348 489.479 24.5487C489.479 29.3777 488.596 33.5276 486.83 36.9984C485.08 40.4692 482.545 43.1403 479.225 45.0115C475.905 46.8676 471.891 47.7957 467.182 47.7957ZM459.169 41.684H466.798C470.329 41.684 473.264 41.02 475.603 39.6921C477.942 38.349 479.692 36.4099 480.854 33.8747C482.016 31.3244 482.597 28.2157 482.597 24.5487C482.597 20.9119 482.016 17.8258 480.854 15.2906C479.708 12.7554 477.995 10.8314 475.716 9.51849C473.437 8.20561 470.608 7.54918 467.228 7.54918H459.169V41.684Z" fill="#1B1407"/>
<path d="M446.003 24.6195C446.003 29.5692 445.098 33.8248 443.287 37.3862C441.476 40.9324 438.994 43.6638 435.84 45.5803C432.701 47.4817 429.132 48.4324 425.133 48.4324C421.119 48.4324 417.535 47.4817 414.381 45.5803C411.242 43.6638 408.767 40.9249 406.957 37.3635C405.146 33.8022 404.24 29.5542 404.24 24.6195C404.24 19.6698 405.146 15.4218 406.957 11.8756C408.767 8.3142 411.242 5.5828 414.381 3.68139C417.535 1.76489 421.119 0.806641 425.133 0.806641C429.132 0.806641 432.701 1.76489 435.84 3.68139C438.994 5.5828 441.476 8.3142 443.287 11.8756C445.098 15.4218 446.003 19.6698 446.003 24.6195ZM439.077 24.6195C439.077 20.8469 438.466 17.6703 437.243 15.0899C436.036 12.4943 434.376 10.5325 432.263 9.20454C430.166 7.86148 427.789 7.18995 425.133 7.18995C422.462 7.18995 420.078 7.86148 417.98 9.20454C415.883 10.5325 414.223 12.4943 413 15.0899C411.793 17.6703 411.189 20.8469 411.189 24.6195C411.189 28.3922 411.793 31.5763 413 34.1719C414.223 36.7524 415.883 38.7141 417.98 40.0572C420.078 41.3852 422.462 42.0491 425.133 42.0491C427.789 42.0491 430.166 41.3852 432.263 40.0572C434.376 38.7141 436.036 36.7524 437.243 34.1719C438.466 31.5763 439.077 28.3922 439.077 24.6195Z" fill="#1B1407"/>
<path d="M351.079 1.4375H359.568L374.326 37.4738H374.869L389.628 1.4375H398.116V47.7957H391.461V14.2494H391.031L377.359 47.7278H371.836L358.164 14.2267H357.734V47.7957H351.079V1.4375Z" fill="#1B1407"/>
<path d="M313.947 47.7957L321.643 1.4375H348.535L347.901 5.24032H325.243L322.345 22.6926H343.578L342.944 26.4954H321.711L318.814 43.9929H341.925L341.291 47.7957H313.947Z" fill="#1B1407"/>
<path d="M276.284 47.7957L283.98 1.4375H298.942C302.232 1.4375 304.88 2.02603 306.887 3.2031C308.909 4.38016 310.305 6.01749 311.075 8.11507C311.86 10.1976 312.033 12.597 311.596 15.3133C311.143 17.9994 310.177 20.3762 308.698 22.4436C307.234 24.511 305.303 26.1332 302.903 27.3103C300.504 28.4722 297.675 29.0532 294.415 29.0532H281.694L282.35 25.1825H294.958C297.388 25.1825 299.47 24.7826 301.206 23.9828C302.941 23.183 304.329 22.0437 305.371 20.5648C306.412 19.0859 307.099 17.3354 307.431 15.3133C307.763 13.276 307.649 11.5029 307.091 9.99385C306.548 8.48479 305.537 7.31527 304.058 6.48529C302.594 5.65531 300.64 5.24032 298.195 5.24032H287.579L280.517 47.7957H276.284ZM300.187 26.8802L308.132 47.7957H303.266L295.456 26.8802H300.187Z" fill="#1B1407"/>
<path d="M256.161 1.4375V47.7957H249.167V1.4375H256.161Z" fill="#1B1407"/>
<path d="M209.389 47.7957V1.4375H216.383V23.5753H216.949L236.393 1.4375H245.199L226.501 22.3077L245.266 47.7957H236.846L221.861 27.0839L216.383 33.3767V47.7957H209.389Z" fill="#1B1407"/>
<path d="M171.222 47.7957H163.798L180.48 1.4375H188.561L205.244 47.7957H197.82L184.713 9.85803H184.351L171.222 47.7957ZM172.467 29.6418H196.552V35.5271H172.467V29.6418Z" fill="#1B1407"/>
<path d="M128.772 47.7957V1.4375H145.296C148.888 1.4375 151.868 2.05621 154.237 3.29364C156.622 4.53106 158.402 6.24384 159.579 8.43197C160.756 10.605 161.345 13.1176 161.345 15.9697C161.345 18.8067 160.749 21.3042 159.557 23.4622C158.38 25.605 156.599 27.2725 154.215 28.4647C151.845 29.6568 148.865 30.2529 145.274 30.2529H132.756V24.2318H144.64C146.903 24.2318 148.744 23.9073 150.163 23.2584C151.596 22.6096 152.645 21.6664 153.309 20.429C153.973 19.1915 154.305 17.7051 154.305 15.9697C154.305 14.2192 153.966 12.7026 153.287 11.4199C152.623 10.1372 151.574 9.15632 150.14 8.47725C148.722 7.78308 146.858 7.436 144.549 7.436H135.766V47.7957H128.772ZM151.657 26.8802L163.111 47.7957H155.143L143.915 26.8802H151.657Z" fill="#1B1407"/>
<path d="M114.135 1.4375H121.152V31.928C121.152 35.1724 120.39 38.0472 118.866 40.5522C117.341 43.0422 115.199 45.0039 112.437 46.4375C109.675 47.8561 106.438 48.5653 102.726 48.5653C99.029 48.5653 95.7996 47.8561 93.038 46.4375C90.2765 45.0039 88.1336 43.0422 86.6095 40.5522C85.0853 38.0472 84.3232 35.1724 84.3232 31.928V1.4375H91.3177V31.3621C91.3177 33.4597 91.778 35.3234 92.6985 36.9531C93.6341 38.5829 94.9545 39.8656 96.6598 40.8012C98.365 41.7217 100.387 42.182 102.726 42.182C105.08 42.182 107.11 41.7217 108.815 40.8012C110.536 39.8656 111.848 38.5829 112.754 36.9531C113.674 35.3234 114.135 33.4597 114.135 31.3621V1.4375Z" fill="#1B1407"/>
<path d="M39.5635 47.7957V1.4375H46.558V21.5834H69.6691V1.4375H76.6862V47.7957H69.6691V27.5819H46.558V47.7957H39.5635Z" fill="#1B1407"/>
<path d="M0.203723 47.7957V43.1327L24.5825 7.45863H0V1.4375H33.1389V6.10048L8.76007 41.7746H33.3426V47.7957H0.203723Z" fill="#1B1407"/>
</svg>
