<svg width="150" height="19" viewBox="0 0 150 19" fill="none" xmlns="http://www.w3.org/2000/svg">
<path d="M147.721 7.55788C147.623 7.24864 147.49 6.97169 147.324 6.72702C147.16 6.47895 146.965 6.26826 146.737 6.09495C146.51 5.91824 146.25 5.78401 145.957 5.69226C145.669 5.60051 145.351 5.55463 145.004 5.55463C144.416 5.55463 143.886 5.70585 143.414 6.0083C142.942 6.31074 142.568 6.7542 142.292 7.3387C142.021 7.91979 141.885 8.63172 141.885 9.47448C141.885 10.3206 142.022 11.036 142.298 11.6205C142.573 12.2049 142.95 12.6484 143.429 12.9509C143.908 13.2533 144.454 13.4045 145.065 13.4045C145.633 13.4045 146.127 13.289 146.549 13.0579C146.974 12.8268 147.301 12.5006 147.533 12.0792C147.767 11.6544 147.884 11.1549 147.884 10.5806L148.292 10.6571H145.305V9.35724H149.408V10.5449C149.408 11.4217 149.221 12.1829 148.848 12.8285C148.477 13.4708 147.964 13.9669 147.308 14.3169C146.656 14.667 145.908 14.842 145.065 14.842C144.121 14.842 143.292 14.6245 142.578 14.1895C141.868 13.7545 141.314 13.1378 140.916 12.3392C140.519 11.5372 140.32 10.5857 140.32 9.48467C140.32 8.65211 140.435 7.9045 140.666 7.24185C140.898 6.5792 141.222 6.01679 141.64 5.55463C142.061 5.08908 142.556 4.73396 143.123 4.48929C143.694 4.24122 144.318 4.11719 144.994 4.11719C145.558 4.11719 146.083 4.20044 146.569 4.36696C147.058 4.53347 147.493 4.76965 147.874 5.07549C148.258 5.38132 148.576 5.74493 148.827 6.16631C149.079 6.58429 149.249 7.04815 149.337 7.55788H147.721Z" fill="#040301"/>
<path d="M138.933 4.25977V14.6991H137.485L132.179 7.04291H132.082V14.6991H130.507V4.25977H131.965L137.276 11.9261H137.373V4.25977H138.933Z" fill="#040301"/>
<path d="M128.787 4.25977V14.6991H127.212V4.25977H128.787Z" fill="#040301"/>
<path d="M119.684 14.6991V4.25977H121.259V13.3432H125.989V14.6991H119.684Z" fill="#040301"/>
<path d="M111.609 14.6991V4.25977H118.154V5.61565H113.184V8.79638H117.813V10.1472H113.184V13.3432H118.216V14.6991H111.609Z" fill="#040301"/>
<path d="M105.204 14.6991H101.825V4.25977H105.311C106.334 4.25977 107.213 4.46876 107.947 4.88674C108.681 5.30132 109.243 5.89771 109.634 6.6759C110.028 7.45069 110.225 8.3801 110.225 9.46413C110.225 10.5516 110.026 11.4861 109.629 12.2677C109.235 13.0493 108.664 13.6507 107.916 14.0721C107.168 14.4901 106.264 14.6991 105.204 14.6991ZM103.4 13.3228H105.118C105.913 13.3228 106.574 13.1733 107.1 12.8742C107.627 12.5718 108.021 12.1351 108.283 11.5642C108.545 10.9899 108.676 10.2899 108.676 9.46413C108.676 8.64516 108.545 7.95023 108.283 7.37933C108.025 6.80843 107.639 6.37515 107.126 6.07951C106.613 5.78387 105.976 5.63604 105.214 5.63604H103.4V13.3228Z" fill="#040301"/>
<path d="M100.435 9.47957C100.435 10.5942 100.231 11.5525 99.8232 12.3545C99.4154 13.153 98.8564 13.7681 98.1461 14.1997C97.4393 14.6279 96.6356 14.842 95.7351 14.842C94.8312 14.842 94.0241 14.6279 93.3139 14.1997C92.607 13.7681 92.0497 13.1513 91.642 12.3494C91.2342 11.5474 91.0303 10.5908 91.0303 9.47957C91.0303 8.36496 91.2342 7.40836 91.642 6.60978C92.0497 5.8078 92.607 5.19272 93.3139 4.76455C94.0241 4.33297 94.8312 4.11719 95.7351 4.11719C96.6356 4.11719 97.4393 4.33297 98.1461 4.76455C98.8564 5.19272 99.4154 5.8078 99.8232 6.60978C100.231 7.40836 100.435 8.36496 100.435 9.47957ZM98.8751 9.47957C98.8751 8.63002 98.7374 7.91469 98.4622 7.3336C98.1903 6.74911 97.8165 6.30734 97.3408 6.0083C96.8684 5.70585 96.3332 5.55463 95.7351 5.55463C95.1336 5.55463 94.5967 5.70585 94.1243 6.0083C93.652 6.30734 93.2782 6.74911 93.0029 7.3336C92.7311 7.91469 92.5952 8.63002 92.5952 9.47957C92.5952 10.3291 92.7311 11.0462 93.0029 11.6306C93.2782 12.2117 93.652 12.6535 94.1243 12.9559C94.5967 13.255 95.1336 13.4045 95.7351 13.4045C96.3332 13.4045 96.8684 13.255 97.3408 12.9559C97.8165 12.6535 98.1903 12.2117 98.4622 11.6306C98.7374 11.0462 98.8751 10.3291 98.8751 9.47957Z" fill="#040301"/>
<path d="M79.0586 4.25977H80.9701L84.2935 12.3747H84.4159L87.7393 4.25977H89.6508V14.6991H88.1522V7.14485H88.0554L84.9766 14.6838H83.7328L80.6541 7.13975H80.5572V14.6991H79.0586V4.25977Z" fill="#040301"/>
<path d="M70.6973 14.6991L72.4304 4.25977H78.486L78.3433 5.11612H73.2408L72.5884 9.04615H77.3697L77.2269 9.9025H72.4456L71.7932 13.8427H76.9976L76.8548 14.6991H70.6973Z" fill="#040301"/>
<path d="M62.2158 14.6991L63.9489 4.25977H67.3182C68.0591 4.25977 68.6554 4.3923 69.1074 4.65736C69.5628 4.92242 69.8771 5.29112 70.0504 5.76348C70.2271 6.23243 70.2662 6.77275 70.1676 7.38443C70.0657 7.98931 69.8482 8.52453 69.5152 8.99008C69.1856 9.45564 68.7506 9.82095 68.2103 10.086C67.67 10.3477 67.0328 10.4785 66.2988 10.4785H63.4341L63.5819 9.60686H66.4211C66.9682 9.60686 67.4372 9.51681 67.828 9.3367C68.2188 9.1566 68.5314 8.90003 68.7659 8.56701C69.0004 8.23398 69.155 7.83979 69.2297 7.38443C69.3045 6.92567 69.279 6.52638 69.1533 6.18655C69.0309 5.84673 68.8033 5.58337 68.4702 5.39647C68.1406 5.20957 67.7005 5.11612 67.15 5.11612H64.7594L63.169 14.6991H62.2158ZM67.5986 9.98916L69.3878 14.6991H68.2918L66.5333 9.98916H67.5986Z" fill="#040301"/>
<path d="M57.6844 4.25977V14.6991H56.1094V4.25977H57.6844Z" fill="#040301"/>
<path d="M47.1519 14.6991V4.25977H48.7269V9.24495H48.8544L53.233 4.25977H55.2158L51.0054 8.9595L55.2311 14.6991H53.3349L49.9605 10.035L48.7269 11.4521V14.6991H47.1519Z" fill="#040301"/>
<path d="M38.5572 14.6991H36.8853L40.642 4.25977H42.4617L46.2185 14.6991H44.5465L41.5952 6.15597H41.5136L38.5572 14.6991ZM38.8375 10.611H44.2611V11.9363H38.8375V10.611Z" fill="#040301"/>
<path d="M28.998 14.6991V4.25977H32.7191C33.5279 4.25977 34.199 4.39909 34.7325 4.67775C35.2695 4.9564 35.6704 5.3421 35.9355 5.83484C36.2006 6.32418 36.3331 6.88999 36.3331 7.53225C36.3331 8.17111 36.1989 8.73352 35.9304 9.21946C35.6653 9.70201 35.2644 10.0775 34.7274 10.346C34.1939 10.6144 33.5228 10.7487 32.714 10.7487H29.8952V9.39277H32.5713C33.081 9.39277 33.4956 9.31971 33.815 9.17359C34.1378 9.02746 34.374 8.81507 34.5235 8.53642C34.6731 8.25777 34.7478 7.92304 34.7478 7.53225C34.7478 7.13805 34.6714 6.79653 34.5184 6.50769C34.3689 6.21884 34.1328 5.99795 33.8099 5.84503C33.4905 5.68872 33.0708 5.61056 32.5509 5.61056H30.5731V14.6991H28.998ZM34.1514 9.98916L36.7307 14.6991H34.9364L32.4082 9.98916H34.1514Z" fill="#040301"/>
<path d="M25.7019 4.25977H27.2821V11.1259C27.2821 11.8565 27.1105 12.5038 26.7673 13.0679C26.4241 13.6286 25.9415 14.0704 25.3196 14.3932C24.6978 14.7127 23.9689 14.8724 23.1329 14.8724C22.3003 14.8724 21.5731 14.7127 20.9512 14.3932C20.3294 14.0704 19.8468 13.6286 19.5036 13.0679C19.1604 12.5038 18.9888 11.8565 18.9888 11.1259V4.25977H20.5638V10.9984C20.5638 11.4708 20.6675 11.8905 20.8748 12.2575C21.0855 12.6245 21.3828 12.9133 21.7668 13.124C22.1508 13.3313 22.6062 13.435 23.1329 13.435C23.663 13.435 24.1201 13.3313 24.5041 13.124C24.8915 12.9133 25.1871 12.6245 25.391 12.2575C25.5983 11.8905 25.7019 11.4708 25.7019 10.9984V4.25977Z" fill="#040301"/>
<path d="M8.90918 14.6991V4.25977H10.4843V8.79638H15.6886V4.25977H17.2688V14.6991H15.6886V10.1472H10.4843V14.6991H8.90918Z" fill="#040301"/>
<path d="M0.045876 14.6991V13.649L5.5357 5.61565H0V4.25977H7.46248V5.30982L1.97266 13.3432H7.50836V14.6991H0.045876Z" fill="#040301"/>
</svg>
