<svg width="1280" height="96" viewBox="0 0 1280 96" fill="none" xmlns="http://www.w3.org/2000/svg">
<path d="M1265.54 31.4769C1264.7 28.8276 1263.57 26.4549 1262.14 24.3588C1260.74 22.2335 1259.07 20.4285 1257.12 18.9438C1255.17 17.4299 1252.94 16.2799 1250.44 15.4939C1247.96 14.7078 1245.24 14.3148 1242.27 14.3148C1237.23 14.3148 1232.69 15.6103 1228.64 18.2014C1224.6 20.7924 1221.39 24.5917 1219.04 29.5991C1216.71 34.5774 1215.54 40.6766 1215.54 47.8966C1215.54 55.1457 1216.72 61.274 1219.08 66.2814C1221.44 71.2889 1224.67 75.0881 1228.78 77.6791C1232.88 80.2702 1237.55 81.5657 1242.79 81.5657C1247.65 81.5657 1251.89 80.5759 1255.5 78.5962C1259.14 76.6165 1261.95 73.8217 1263.93 70.2117C1265.94 66.5726 1266.94 62.2929 1266.94 57.3729L1270.44 58.0279H1244.85V46.8922H1280V57.0672C1280 64.5783 1278.4 71.0996 1275.2 76.6311C1272.02 82.1334 1267.63 86.3839 1262.01 89.3826C1256.42 92.3812 1250.01 93.8805 1242.79 93.8805C1234.7 93.8805 1227.6 92.0173 1221.48 88.2908C1215.4 84.5644 1210.65 79.2804 1207.25 72.4388C1203.84 65.5681 1202.14 57.4165 1202.14 47.9839C1202.14 40.8512 1203.13 34.4464 1205.11 28.7694C1207.09 23.0923 1209.87 18.2741 1213.45 14.3148C1217.06 10.3263 1221.29 7.28401 1226.15 5.18787C1231.05 3.06263 1236.39 2 1242.18 2C1247.01 2 1251.51 2.71327 1255.68 4.1398C1259.87 5.56634 1263.59 7.58969 1266.85 10.2099C1270.14 12.83 1272.87 15.9451 1275.02 19.5551C1277.18 23.136 1278.63 27.1099 1279.39 31.4769H1265.54Z" fill="#F3F0EB"/>
<path d="M1190.25 3.21777V92.6528H1177.85L1132.39 27.0613H1131.56V92.6528H1118.07V3.21777H1130.56L1176.06 68.8966H1176.89V3.21777H1190.25Z" fill="#F3F0EB"/>
<path d="M1103.34 3.21777V92.6528H1089.84V3.21777H1103.34Z" fill="#F3F0EB"/>
<path d="M1025.35 92.6528V3.21777H1038.84V81.0367H1079.37V92.6528H1025.35Z" fill="#F3F0EB"/>
<path d="M956.173 92.6528V3.21777H1012.24V14.8338H969.667V42.0836H1009.32V53.656H969.667V81.0367H1012.77V92.6528H956.173Z" fill="#F3F0EB"/>
<path d="M901.297 92.6528H872.344V3.21777H902.214C910.977 3.21777 918.502 5.00822 924.791 8.58912C931.079 12.1409 935.897 17.2502 939.245 23.9171C942.622 30.5548 944.311 38.5172 944.311 47.8043C944.311 57.1204 942.608 65.1265 939.202 71.8225C935.825 78.5184 930.934 83.6714 924.529 87.2814C918.124 90.8623 910.38 92.6528 901.297 92.6528ZM885.838 80.862H900.554C907.367 80.862 913.029 79.5811 917.542 77.0191C922.054 74.4281 925.431 70.6871 927.673 65.7961C929.915 60.876 931.035 54.8787 931.035 47.8043C931.035 40.7881 929.915 34.8344 927.673 29.9435C925.46 25.0525 922.156 21.3406 917.76 18.8078C913.364 16.2749 907.905 15.0085 901.384 15.0085H885.838V80.862Z" fill="#F3F0EB"/>
<path d="M860.437 47.9403C860.437 57.4893 858.69 65.6992 855.197 72.5698C851.703 79.4114 846.914 84.6808 840.83 88.3782C834.774 92.0464 827.889 93.8805 820.174 93.8805C812.43 93.8805 805.516 92.0464 799.431 88.3782C793.376 84.6808 788.601 79.3968 785.108 72.5262C781.614 65.6555 779.867 57.4602 779.867 47.9403C779.867 38.3912 781.614 30.1959 785.108 23.3544C788.601 16.4837 793.376 11.2143 799.431 7.54602C805.516 3.84867 812.43 2 820.174 2C827.889 2 834.774 3.84867 840.83 7.54602C846.914 11.2143 851.703 16.4837 855.197 23.3544C858.69 30.1959 860.437 38.3912 860.437 47.9403ZM847.074 47.9403C847.074 40.662 845.895 34.5337 843.537 29.5554C841.208 24.548 838.006 20.7633 833.93 18.2014C829.883 15.6103 825.298 14.3148 820.174 14.3148C815.021 14.3148 810.421 15.6103 806.375 18.2014C802.328 20.7633 799.125 24.548 796.767 29.5554C794.438 34.5337 793.274 40.662 793.274 47.9403C793.274 55.2185 794.438 61.3613 796.767 66.3688C799.125 71.3471 802.328 75.1318 806.375 77.7228C810.421 80.2848 815.021 81.5657 820.174 81.5657C825.298 81.5657 829.883 80.2848 833.93 77.7228C838.006 75.1318 841.208 71.3471 843.537 66.3688C845.895 61.3613 847.074 55.2185 847.074 47.9403Z" fill="#F3F0EB"/>
<path d="M677.308 3.21777H693.684L722.156 72.7395H723.204L751.677 3.21777H768.053V92.6528H755.214V27.9347H754.384L728.008 92.5218H717.352L690.976 27.891H690.146V92.6528H677.308V3.21777Z" fill="#F3F0EB"/>
<path d="M605.673 92.6528L620.52 3.21777H672.4L671.177 10.5542H627.464L621.874 44.2234H662.836L661.613 51.5598H620.651L615.062 85.3163H659.648L658.426 92.6528H605.673Z" fill="#F3F0EB"/>
<path d="M533.011 92.6528L547.859 3.21777H576.724C583.071 3.21777 588.18 4.35318 592.052 6.62399C595.953 8.8948 598.646 12.0536 600.131 16.1003C601.645 20.1178 601.98 24.7468 601.136 29.9871C600.262 35.1693 598.399 39.7545 595.546 43.743C592.722 47.7315 588.995 50.8611 584.366 53.1319C579.738 55.3736 574.279 56.4945 567.99 56.4945H543.448L544.715 49.027H569.039C573.726 49.027 577.743 48.2555 581.091 46.7125C584.439 45.1695 587.118 42.9715 589.126 40.1185C591.135 37.2654 592.46 33.8883 593.1 29.9871C593.741 26.0569 593.522 22.6361 592.445 19.7248C591.397 16.8135 589.447 14.5573 586.594 12.9561C583.77 11.3548 580 10.5542 575.283 10.5542H554.802L541.177 92.6528H533.011ZM579.126 52.3022L594.454 92.6528H585.065L569.999 52.3022H579.126Z" fill="#F3F0EB"/>
<path d="M494.191 3.21777V92.6528H480.697V3.21777H494.191Z" fill="#F3F0EB"/>
<path d="M403.957 92.6528V3.21777H417.45V45.9265H418.542L456.054 3.21777H473.042L436.971 43.481L473.173 92.6528H456.928L428.018 52.6952L417.45 64.8354V92.6528H403.957Z" fill="#F3F0EB"/>
<path d="M330.325 92.6528H316.001L348.186 3.21777H363.776L395.96 92.6528H381.637L356.352 19.4628H355.653L330.325 92.6528ZM332.727 57.6299H379.191V68.9839H332.727V57.6299Z" fill="#F3F0EB"/>
<path d="M248.429 92.6528V3.21777H280.307C287.236 3.21777 292.986 4.4114 297.557 6.79867C302.157 9.18593 305.592 12.4902 307.863 16.7116C310.134 20.9039 311.269 25.7512 311.269 31.2536C311.269 36.7268 310.119 41.545 307.819 45.7081C305.548 49.8422 302.113 53.0592 297.513 55.3591C292.942 57.659 287.193 58.809 280.264 58.809H256.115V47.1929H279.041C283.408 47.1929 286.96 46.567 289.696 45.3151C292.462 44.0633 294.485 42.2437 295.766 39.8564C297.047 37.4692 297.688 34.6015 297.688 31.2536C297.688 27.8764 297.033 24.9506 295.723 22.476C294.442 20.0014 292.418 18.1091 289.653 16.799C286.916 15.4598 283.321 14.7902 278.866 14.7902H261.923V92.6528H248.429ZM292.579 52.3022L314.675 92.6528H299.304L277.644 52.3022H292.579Z" fill="#F3F0EB"/>
<path d="M220.191 3.21777H233.728V62.0405C233.728 68.2998 232.258 73.8458 229.318 78.6786C226.377 83.4822 222.243 87.2669 216.916 90.0326C211.588 92.7692 205.343 94.1376 198.181 94.1376C191.049 94.1376 184.819 92.7692 179.491 90.0326C174.163 87.2669 170.029 83.4822 167.089 78.6786C164.148 73.8458 162.678 68.2998 162.678 62.0405V3.21777H176.172V60.9488C176.172 64.9955 177.06 68.5909 178.836 71.7351C180.641 74.8793 183.188 77.3539 186.478 79.1589C189.768 80.9348 193.669 81.8228 198.181 81.8228C202.723 81.8228 206.639 80.9348 209.929 79.1589C213.247 77.3539 215.78 74.8793 217.527 71.7351C219.303 68.5909 220.191 64.9955 220.191 60.9488V3.21777Z" fill="#F3F0EB"/>
<path d="M76.3262 92.6528V3.21777H89.82V42.0836H134.407V3.21777H147.944V92.6528H134.407V53.656H89.82V92.6528H76.3262Z" fill="#F3F0EB"/>
<path d="M0.393025 92.6528V83.6569L47.425 14.8338H0V3.21777H63.9321V12.2137L16.9001 81.0367H64.3251V92.6528H0.393025Z" fill="#F3F0EB"/>
</svg>
