<svg width="664" height="64" viewBox="0 0 664 64" fill="none" xmlns="http://www.w3.org/2000/svg">
<path d="M656.502 23.3563C656.064 21.9761 655.475 20.74 654.735 19.648C654.01 18.5409 653.142 17.6005 652.13 16.827C651.118 16.0384 649.963 15.4393 648.664 15.0298C647.38 14.6203 645.968 14.4155 644.427 14.4155C641.815 14.4155 639.459 15.0904 637.36 16.4403C635.26 17.7901 633.599 19.7694 632.376 22.378C631.168 24.9715 630.564 28.149 630.564 31.9103C630.564 35.6868 631.175 38.8794 632.398 41.4881C633.622 44.0967 635.298 46.076 637.428 47.4258C639.557 48.7757 641.981 49.4506 644.699 49.4506C647.221 49.4506 649.419 48.9349 651.292 47.9036C653.179 46.8722 654.637 45.4162 655.664 43.5356C656.706 41.6397 657.227 39.4102 657.227 36.8471L659.039 37.1883H645.764V31.387H664V36.6878C664 40.6008 663.17 43.9981 661.508 46.8798C659.862 49.7463 657.582 51.9607 654.667 53.5228C651.767 55.085 648.445 55.8661 644.699 55.8661C640.501 55.8661 636.816 54.8954 633.644 52.9541C630.488 51.0127 628.026 48.26 626.259 44.6958C624.492 41.1165 623.609 36.8698 623.609 31.9558C623.609 28.24 624.122 24.9033 625.149 21.9458C626.176 18.9883 627.619 16.4782 629.476 14.4155C631.349 12.3377 633.546 10.7528 636.068 9.66075C638.606 8.55359 641.377 8 644.382 8C646.889 8 649.223 8.37158 651.382 9.11475C653.557 9.85792 655.49 10.912 657.181 12.277C658.888 13.642 660.3 15.2648 661.418 17.1455C662.535 19.011 663.29 21.0813 663.683 23.3563H656.502Z" fill="#F3F0EB"/>
<path d="M617.444 8.63477V55.2268H611.01L587.428 21.0563H586.998V55.2268H579.998V8.63477H586.476L610.081 42.8508H610.512V8.63477H617.444Z" fill="#F3F0EB"/>
<path d="M572.356 8.63477V55.2268H565.356V8.63477H572.356Z" fill="#F3F0EB"/>
<path d="M531.9 55.2268V8.63477H538.9V49.1753H559.922V55.2268H531.9Z" fill="#F3F0EB"/>
<path d="M496.015 55.2268V8.63477H525.102V14.6863H503.015V28.8823H523.584V34.9111H503.015V49.1753H525.374V55.2268H496.015Z" fill="#F3F0EB"/>
<path d="M467.548 55.2268H452.528V8.63477H468.023C472.569 8.63477 476.473 9.56752 479.735 11.433C482.997 13.2834 485.497 15.9451 487.234 19.4183C488.985 22.8763 489.861 27.0244 489.861 31.8626C489.861 36.7159 488.978 40.8867 487.211 44.3751C485.459 47.8634 482.922 50.5479 479.599 52.4286C476.277 54.2941 472.26 55.2268 467.548 55.2268ZM459.528 49.0843H467.163C470.696 49.0843 473.634 48.417 475.975 47.0823C478.316 45.7325 480.067 43.7836 481.23 41.2356C482.393 38.6724 482.975 35.5481 482.975 31.8626C482.975 28.2074 482.393 25.1058 481.23 22.5578C480.083 20.0098 478.368 18.076 476.088 16.7565C473.808 15.437 470.976 14.7773 467.593 14.7773H459.528V49.0843Z" fill="#F3F0EB"/>
<path d="M446.352 31.933C446.352 36.9077 445.446 41.1847 443.633 44.7641C441.821 48.3282 439.337 51.0734 436.18 52.9996C433.039 54.9106 429.467 55.8661 425.465 55.8661C421.448 55.8661 417.861 54.9106 414.705 52.9996C411.564 51.0734 409.087 48.3207 407.275 44.7413C405.462 41.162 404.556 36.8926 404.556 31.933C404.556 26.9584 405.462 22.6889 407.275 19.1248C409.087 15.5454 411.564 12.8003 414.705 10.8893C417.861 8.96309 421.448 8 425.465 8C429.467 8 433.039 8.96309 436.18 10.8893C439.337 12.8003 441.821 15.5454 443.633 19.1248C445.446 22.6889 446.352 26.9584 446.352 31.933ZM439.42 31.933C439.42 28.1414 438.808 24.9488 437.585 22.3553C436.377 19.7466 434.716 17.7749 432.601 16.4403C430.502 15.0904 428.123 14.4155 425.465 14.4155C422.792 14.4155 420.406 15.0904 418.307 16.4403C416.208 17.7749 414.546 19.7466 413.323 22.3553C412.115 24.9488 411.511 28.1414 411.511 31.933C411.511 35.7247 412.115 38.9249 413.323 41.5336C414.546 44.1271 416.208 46.0987 418.307 47.4486C420.406 48.7832 422.792 49.4506 425.465 49.4506C428.123 49.4506 430.502 48.7832 432.601 47.4486C434.716 46.0987 436.377 44.1271 437.585 41.5336C438.808 38.9249 439.42 35.7247 439.42 31.933Z" fill="#F3F0EB"/>
<path d="M351.354 8.63477H359.849L374.619 44.8528H375.162L389.932 8.63477H398.428V55.2268H391.767V21.5113H391.337L377.654 55.1586H372.127L358.444 21.4885H358.014V55.2268H351.354V8.63477Z" fill="#F3F0EB"/>
<path d="M314.193 55.2268L321.895 8.63477H348.807L348.173 12.4568H325.497L322.597 29.9971H343.846L343.212 33.8191H321.963L319.063 51.4048H342.193L341.558 55.2268H314.193Z" fill="#F3F0EB"/>
<path d="M276.5 55.2268L284.202 8.63477H299.176C302.468 8.63477 305.118 9.22627 307.127 10.4093C309.151 11.5923 310.548 13.2379 311.318 15.346C312.103 17.439 312.277 19.8505 311.839 22.5805C311.386 25.2802 310.419 27.669 308.939 29.7468C307.474 31.8246 305.541 33.4551 303.14 34.6381C300.739 35.8059 297.907 36.3898 294.645 36.3898H281.914L282.571 32.4996H295.189C297.62 32.4996 299.704 32.0976 301.441 31.2938C303.178 30.49 304.567 29.3449 305.609 27.8586C306.651 26.3722 307.339 24.6129 307.671 22.5805C308.003 20.533 307.89 18.7509 307.331 17.2343C306.787 15.7176 305.775 14.5422 304.295 13.708C302.83 12.8739 300.875 12.4568 298.428 12.4568H287.804L280.736 55.2268H276.5ZM300.422 34.2058L308.373 55.2268H303.503L295.687 34.2058H300.422Z" fill="#F3F0EB"/>
<path d="M256.362 8.63477V55.2268H249.362V8.63477H256.362Z" fill="#F3F0EB"/>
<path d="M209.553 55.2268V8.63477H216.553V30.8843H217.119L236.578 8.63477H245.391L226.679 29.6103L245.459 55.2268H237.031L222.035 34.4106L216.553 40.7351V55.2268H209.553Z" fill="#F3F0EB"/>
<path d="M171.356 55.2268H163.926L180.621 8.63477H188.709L205.404 55.2268H197.974L184.858 17.0978H184.495L171.356 55.2268ZM172.602 36.9813H196.705V42.8963H172.602V36.9813Z" fill="#F3F0EB"/>
<path d="M128.873 55.2268V8.63477H145.41C149.004 8.63477 151.987 9.2566 154.358 10.5003C156.744 11.7439 158.526 13.4654 159.704 15.6645C160.882 17.8485 161.471 20.3738 161.471 23.2403C161.471 26.0916 160.874 28.6017 159.681 30.7706C158.503 32.9242 156.721 34.6001 154.335 35.7983C151.964 36.9965 148.981 37.5956 145.387 37.5956H132.86V31.5441H144.753C147.018 31.5441 148.861 31.218 150.28 30.5658C151.715 29.9136 152.764 28.9657 153.429 27.722C154.093 26.4784 154.426 24.9845 154.426 23.2403C154.426 21.481 154.086 19.9567 153.406 18.6675C152.742 17.3784 151.692 16.3925 150.257 15.71C148.838 15.0124 146.973 14.6635 144.662 14.6635H135.873V55.2268H128.873ZM151.775 34.2058L163.238 55.2268H155.264L144.028 34.2058H151.775Z" fill="#F3F0EB"/>
<path d="M114.224 8.63477H121.246V39.2791C121.246 42.5399 120.484 45.4292 118.958 47.9468C117.433 50.4493 115.289 52.421 112.525 53.8619C109.761 55.2875 106.522 56.0004 102.806 56.0004C99.1064 56.0004 95.8745 55.2875 93.1108 53.8619C90.347 52.421 88.2025 50.4493 86.6772 47.9468C85.1518 45.4292 84.3892 42.5399 84.3892 39.2791V8.63477H91.3891V38.7103C91.3891 40.8185 91.8497 42.6916 92.771 44.3296C93.7073 45.9676 95.0288 47.2568 96.7353 48.1971C98.4419 49.1223 100.466 49.5848 102.806 49.5848C105.162 49.5848 107.194 49.1223 108.9 48.1971C110.622 47.2568 111.936 45.9676 112.842 44.3296C113.763 42.6916 114.224 40.8185 114.224 38.7103V8.63477Z" fill="#F3F0EB"/>
<path d="M39.5942 55.2268V8.63477H46.5942V28.8823H69.7234V8.63477H76.746V55.2268H69.7234V34.9111H46.5942V55.2268H39.5942Z" fill="#F3F0EB"/>
<path d="M0.203882 55.2268V50.5403L24.6017 14.6863H0V8.63477H33.1648V13.3213L8.76692 49.1753H33.3687V55.2268H0.203882Z" fill="#F3F0EB"/>
</svg>
