<svg aria-hidden="true" style="position: absolute; width: 0; height: 0; overflow: hidden;" version="1.1" xmlns="http://www.w3.org/2000/svg" xmlns:xlink="http://www.w3.org/1999/xlink">

<defs>
<symbol id="icon-logo" viewBox="0 0 253 32">
<path d="M248.793 12.729c-0.165-0.521-0.389-0.987-0.669-1.399-0.276-0.418-0.605-0.773-0.989-1.065-0.382-0.298-0.82-0.524-1.314-0.678-0.485-0.155-1.021-0.232-1.605-0.232-0.99 0-1.883 0.255-2.678 0.764s-1.425 1.256-1.89 2.241c-0.456 0.979-0.685 2.178-0.685 3.597 0 1.425 0.231 2.63 0.696 3.614 0.463 0.984 1.098 1.731 1.905 2.241s1.726 0.764 2.755 0.764c0.957 0 1.789-0.195 2.499-0.584 0.716-0.389 1.267-0.939 1.657-1.648 0.394-0.715 0.591-1.557 0.591-2.524l0.687 0.129h-5.031v-2.189h6.91v2c0 1.477-0.315 2.759-0.943 3.846-0.625 1.082-1.489 1.917-2.594 2.507-1.098 0.59-2.358 0.884-3.778 0.884-1.59 0-2.986-0.366-4.189-1.099-1.196-0.733-2.129-1.771-2.799-3.116-0.669-1.351-1.004-2.953-1.004-4.808 0-1.402 0.194-2.661 0.583-3.777 0.391-1.116 0.936-2.063 1.64-2.842 0.709-0.784 1.543-1.382 2.498-1.794 0.962-0.418 2.013-0.627 3.151-0.627 0.95 0 1.834 0.14 2.653 0.421 0.824 0.28 1.556 0.678 2.198 1.193 0.647 0.515 1.182 1.127 1.605 1.837 0.424 0.704 0.711 1.485 0.859 2.344h-2.722z"></path>
<path d="M233.992 7.174v17.582h-2.439l-8.936-12.895h-0.163v12.895h-2.653v-17.582h2.456l8.945 12.912h0.163v-12.912h2.627z"></path>
<path d="M216.904 7.174v17.582h-2.653v-17.582h2.653z"></path>
<path d="M201.573 24.756v-17.582h2.653v15.298h7.966v2.284h-10.619z"></path>
<path d="M187.973 24.756v-17.582h11.023v2.284h-8.371v5.357h7.796v2.275h-7.796v5.383h8.475v2.284h-11.128z"></path>
<path d="M177.186 24.756h-5.691v-17.582h5.871c1.723 0 3.203 0.352 4.44 1.056 1.236 0.698 2.183 1.703 2.841 3.013 0.664 1.305 0.995 2.87 0.995 4.696 0 1.832-0.335 3.405-1.004 4.722-0.664 1.316-1.625 2.329-2.885 3.039-1.26 0.704-2.782 1.056-4.568 1.056zM174.147 22.438h2.893c1.339 0 2.452-0.252 3.338-0.756 0.888-0.509 1.551-1.245 1.992-2.206 0.441-0.967 0.662-2.146 0.662-3.537 0-1.379-0.221-2.55-0.662-3.511-0.435-0.962-1.085-1.691-1.949-2.189s-1.937-0.747-3.22-0.747h-3.055v12.946z"></path>
<path d="M169.154 15.966c0 1.877-0.344 3.491-1.030 4.842-0.687 1.345-1.628 2.381-2.825 3.108-1.19 0.721-2.544 1.082-4.061 1.082-1.522 0-2.882-0.361-4.078-1.082-1.191-0.727-2.129-1.766-2.816-3.116s-1.030-2.962-1.030-4.833c0-1.877 0.343-3.488 1.030-4.833 0.687-1.351 1.625-2.387 2.816-3.108 1.196-0.727 2.555-1.090 4.078-1.090 1.517 0 2.87 0.363 4.061 1.090 1.196 0.721 2.138 1.757 2.825 3.108 0.687 1.345 1.030 2.956 1.030 4.833zM166.526 15.966c0-1.431-0.232-2.636-0.695-3.614-0.458-0.984-1.088-1.728-1.889-2.232-0.796-0.509-1.697-0.764-2.704-0.764-1.013 0-1.917 0.255-2.713 0.764-0.795 0.504-1.425 1.248-1.889 2.232-0.458 0.979-0.687 2.183-0.687 3.614s0.229 2.639 0.687 3.623c0.464 0.979 1.093 1.723 1.889 2.232 0.796 0.504 1.7 0.756 2.713 0.756 1.007 0 1.909-0.252 2.704-0.756 0.801-0.509 1.431-1.253 1.889-2.232 0.464-0.984 0.695-2.192 0.695-3.623z"></path>
<path d="M133.151 7.174h3.219l5.597 13.667h0.206l5.597-13.667h3.219v17.582h-2.524v-12.723h-0.163l-5.185 12.697h-2.095l-5.185-12.706h-0.163v12.732h-2.524v-17.582z"></path>
<path d="M119.069 24.756l2.919-17.582h10.199l-0.24 1.442h-8.594l-1.099 6.619h8.053l-0.24 1.442h-8.053l-1.099 6.636h8.765l-0.24 1.442h-10.371z"></path>
<path d="M104.784 24.756l2.919-17.582h5.675c1.248 0 2.252 0.223 3.013 0.67 0.767 0.446 1.296 1.067 1.588 1.863 0.298 0.79 0.363 1.7 0.197 2.73-0.172 1.019-0.538 1.92-1.099 2.704-0.555 0.784-1.288 1.399-2.198 1.846-0.91 0.441-1.983 0.661-3.219 0.661h-4.825l0.249-1.468h4.782c0.921 0 1.711-0.152 2.37-0.455s1.185-0.735 1.58-1.296c0.395-0.561 0.655-1.225 0.781-1.992 0.126-0.773 0.083-1.445-0.129-2.017-0.206-0.572-0.589-1.016-1.15-1.331-0.555-0.315-1.296-0.472-2.224-0.472h-4.026l-2.679 16.14h-1.605zM113.85 16.824l3.013 7.933h-1.846l-2.962-7.933h1.794z"></path>
<path d="M97.153 7.174v17.582h-2.653v-17.582h2.653z"></path>
<path d="M79.414 24.756v-17.582h2.653v8.396h0.215l7.374-8.396h3.339l-7.091 7.915 7.117 9.667h-3.194l-5.683-7.855-2.078 2.387v5.469h-2.653z"></path>
<path d="M64.938 24.756h-2.816l6.327-17.582h3.065l6.327 17.582h-2.816l-4.971-14.388h-0.137l-4.979 14.388zM65.411 17.871h9.134v2.232h-9.134v-2.232z"></path>
<path d="M48.839 24.756v-17.582h6.267c1.362 0 2.492 0.235 3.391 0.704 0.904 0.469 1.58 1.119 2.026 1.949 0.446 0.824 0.67 1.777 0.67 2.859 0 1.076-0.226 2.023-0.678 2.842-0.446 0.813-1.122 1.445-2.026 1.897-0.899 0.452-2.029 0.678-3.391 0.678h-4.747v-2.284h4.507c0.858 0 1.557-0.123 2.095-0.369 0.544-0.246 0.941-0.604 1.193-1.073s0.378-1.033 0.378-1.691c0-0.664-0.129-1.239-0.386-1.726-0.252-0.486-0.649-0.858-1.193-1.116-0.538-0.263-1.245-0.395-2.12-0.395h-3.331v15.307h-2.653zM57.518 16.824l4.344 7.933h-3.022l-4.258-7.933h2.936z"></path>
<path d="M43.287 7.174h2.661v11.564c0 1.23-0.289 2.321-0.867 3.271-0.578 0.944-1.391 1.688-2.438 2.232-1.047 0.538-2.275 0.807-3.683 0.807-1.402 0-2.627-0.269-3.674-0.807-1.047-0.544-1.86-1.288-2.438-2.232-0.578-0.95-0.867-2.040-0.867-3.271v-11.564h2.653v11.349c0 0.796 0.175 1.502 0.524 2.121 0.355 0.618 0.856 1.105 1.502 1.459 0.647 0.349 1.414 0.524 2.301 0.524 0.893 0 1.663-0.175 2.309-0.524 0.652-0.355 1.15-0.841 1.494-1.459 0.349-0.618 0.524-1.325 0.524-2.121v-11.349z"></path>
<path d="M15.005 24.756v-17.582h2.653v7.641h8.765v-7.641h2.661v17.582h-2.661v-7.666h-8.765v7.666h-2.653z"></path>
<path d="M0.077 24.756v-1.769l9.246-13.53h-9.323v-2.284h12.568v1.768l-9.246 13.53h9.323v2.284h-12.568z"></path>
</symbol>

<symbol id="icon-instagram" viewBox="0 0 32 32">
<path d="M16 2.883c4.272 0 4.779 0.016 6.465 0.093 1.744 0.080 3.54 0.477 4.811 1.748 1.283 1.283 1.668 3.061 1.748 4.811 0.077 1.687 0.093 2.193 0.093 6.465s-0.016 4.779-0.093 6.465c-0.079 1.735-0.485 3.548-1.748 4.811-1.283 1.283-3.060 1.668-4.811 1.748-1.687 0.077-2.193 0.093-6.465 0.093s-4.779-0.016-6.465-0.093c-1.721-0.079-3.559-0.495-4.811-1.748-1.276-1.276-1.668-3.072-1.748-4.811-0.077-1.687-0.093-2.193-0.093-6.465s0.016-4.779 0.093-6.465c0.079-1.728 0.489-3.552 1.748-4.811 1.28-1.28 3.065-1.668 4.811-1.748 1.687-0.077 2.193-0.093 6.465-0.093zM16 0c-4.345 0-4.891 0.019-6.597 0.096-2.473 0.113-4.929 0.801-6.717 2.589-1.795 1.795-2.476 4.245-2.589 6.717-0.077 1.707-0.096 2.252-0.096 6.597s0.019 4.891 0.096 6.597c0.113 2.471 0.804 4.933 2.589 6.717 1.793 1.793 4.248 2.476 6.717 2.589 1.707 0.077 2.252 0.096 6.597 0.096s4.891-0.019 6.597-0.096c2.472-0.113 4.931-0.803 6.717-2.589 1.796-1.796 2.476-4.245 2.589-6.717 0.077-1.707 0.096-2.252 0.096-6.597s-0.019-4.891-0.096-6.597c-0.113-2.473-0.803-4.931-2.589-6.717-1.791-1.791-4.252-2.477-6.717-2.589-1.707-0.077-2.252-0.096-6.597-0.096z"></path>
<path d="M16 7.784c-4.537 0-8.216 3.679-8.216 8.216s3.679 8.216 8.216 8.216 8.216-3.679 8.216-8.216c0-4.537-3.679-8.216-8.216-8.216zM16 21.333c-2.945 0-5.333-2.388-5.333-5.333s2.388-5.333 5.333-5.333 5.333 2.388 5.333 5.333-2.388 5.333-5.333 5.333z"></path>
<path d="M26.461 7.459c0 1.060-0.86 1.92-1.92 1.92s-1.92-0.86-1.92-1.92c0-1.060 0.86-1.92 1.92-1.92s1.92 0.86 1.92 1.92z"></path>
</symbol>

<symbol id="icon-menu" viewBox="0 0 32 32">
<path d="M30.609 14.609h-29.217c-0.768 0-1.391 0.623-1.391 1.391s0.623 1.391 1.391 1.391h29.217c0.768 0 1.391-0.623 1.391-1.391s-0.623-1.391-1.391-1.391z"></path>
<path d="M1.391 7.652h29.217c0.768 0 1.391-0.623 1.391-1.391s-0.623-1.391-1.391-1.391h-29.217c-0.768 0-1.391 0.623-1.391 1.391s0.623 1.391 1.391 1.391z"></path>
<path d="M30.609 24.348h-29.217c-0.768 0-1.391 0.623-1.391 1.391s0.623 1.391 1.391 1.391h29.217c0.768 0 1.391-0.623 1.391-1.391s-0.623-1.391-1.391-1.391z"></path>
</symbol>

<symbol id="icon-arrow-right" viewBox="0 0 32 32">
<path d="M30.832 13.172l-6.115-6.115-1.885 1.885 5.683 5.684-28.515 0.040v2.667l28.595-0.040-5.764 5.764 1.885 1.885 6.116-6.115c0.721-0.725 1.167-1.724 1.167-2.828s-0.446-2.103-1.167-2.828l0 0z"></path>
</symbol>

<symbol id="icon-close" viewBox="0 0 32 32">
<path d="M32 1.885l-1.885-1.885-14.115 14.115-14.115-14.115-1.885 1.885 14.115 14.115-14.115 14.115 1.885 1.885 14.115-14.115 14.115 14.115 1.885-1.885-14.115-14.115 14.115-14.115z"></path>
</symbol>

<symbol id="icon-user" viewBox="0 0 32 32">
<path fill="#fff" style="fill: var(--color1, #fff)" d="M21.333 8h-1c0 2.393-1.94 4.333-4.333 4.333v2c3.498 0 6.333-2.836 6.333-6.333h-1zM16 13.333v-1c-2.393 0-4.333-1.94-4.333-4.333h-2c0 3.498 2.836 6.333 6.333 6.333v-1zM10.667 8h1c0-2.393 1.94-4.333 4.333-4.333v-2c-3.498 0-6.333 2.836-6.333 6.333h1zM16 2.667v1c2.393 0 4.333 1.94 4.333 4.333h2c0-3.498-2.835-6.333-6.333-6.333v1zM12 17.333v1h8v-2h-8v1zM20 28v-1h-8v2h8v-1zM12 28v-1c-2.393 0-4.333-1.94-4.333-4.333h-2c0 3.498 2.836 6.333 6.333 6.333v-1zM25.333 22.667h-1c0 2.393-1.94 4.333-4.333 4.333v2c3.498 0 6.333-2.835 6.333-6.333h-1zM20 17.333v1c2.393 0 4.333 1.94 4.333 4.333h2c0-3.498-2.835-6.333-6.333-6.333v1zM12 17.333v-1c-3.498 0-6.333 2.835-6.333 6.333h2c0-2.393 1.94-4.333 4.333-4.333v-1z"></path>
</symbol>

<symbol id="icon-arrow-up-right" viewBox="0 0 32 32">
<path d="M28.667 0h-16.667v4h13.172l-25.137 25.137 2.828 2.828 25.137-25.137v13.172h4v-16.667c0-1.837-1.495-3.333-3.333-3.333z"></path>
</symbol>

<symbol id="icon-point" viewBox="0 0 32 32">
<path d="M16 22.667c-3.68 0-6.667-2.987-6.667-6.667s2.987-6.667 6.667-6.667 6.667 2.987 6.667 6.667-2.987 6.667-6.667 6.667z"></path>
</symbol>

<symbol id="icon-plus" viewBox="0 0 32 32">
<path d="M22.667 14.667h-5.333v-5.333c0-0.736-0.597-1.333-1.333-1.333v0 0c-0.736 0-1.333 0.597-1.333 1.333v0 5.333h-5.333c-0.736 0-1.333 0.597-1.333 1.333v0 0c0 0.736 0.597 1.333 1.333 1.333v0h5.333v5.333c0 0.736 0.597 1.333 1.333 1.333v0 0c0.736 0 1.333-0.597 1.333-1.333v0-5.333h5.333c0.736 0 1.333-0.597 1.333-1.333v0 0c0-0.736-0.597-1.333-1.333-1.333v0z"></path>
</symbol>

<symbol id="icon-cross" viewBox="0 0 32 32">
<path d="M24 8v0c-0.241-0.241-0.575-0.39-0.943-0.39s-0.701 0.149-0.943 0.39l-6.115 6.115-6.115-6.115c-0.241-0.241-0.575-0.39-0.943-0.39s-0.701 0.149-0.943 0.39v0c-0.241 0.241-0.39 0.575-0.39 0.943s0.149 0.701 0.39 0.943l6.115 6.115-6.115 6.115c-0.241 0.241-0.39 0.575-0.39 0.943s0.149 0.701 0.39 0.943v0c0.241 0.241 0.575 0.39 0.943 0.39s0.701-0.149 0.943-0.39l6.115-6.115 6.115 6.115c0.241 0.241 0.575 0.39 0.943 0.39s0.701-0.149 0.943-0.39v0c0.241-0.241 0.39-0.575 0.39-0.943s-0.149-0.701-0.39-0.943l-6.115-6.115 6.115-6.115c0.241-0.241 0.39-0.575 0.39-0.943s-0.149-0.701-0.39-0.943v0z"></path>
</symbol>

<symbol id="icon-user-black" viewBox="0 0 32 32">
<path d="M16 16c4.418 0 8-3.582 8-8s-3.582-8-8-8c-4.418 0-8 3.582-8 8v0c0.005 4.416 3.584 7.995 8 8h0zM16 2.667c2.946 0 5.333 2.388 5.333 5.333s-2.388 5.333-5.333 5.333c-2.946 0-5.333-2.388-5.333-5.333v0c0-2.946 2.388-5.333 5.333-5.333v0z"></path>
<path d="M16 18.667c-6.624 0.008-11.992 5.376-12 11.999v0.001c0 0.736 0.597 1.333 1.333 1.333s1.333-0.597 1.333-1.333v0c0-5.155 4.179-9.333 9.333-9.333s9.333 4.179 9.333 9.333v0c0 0.736 0.597 1.333 1.333 1.333s1.333-0.597 1.333-1.333v0c-0.008-6.624-5.376-11.992-11.999-12h-0.001z"></path>
</symbol>

<symbol id="icon-location" viewBox="0 0 32 32">
<path d="M2.667 13.333c0 11.321 12.168 18.211 12.685 18.499 0.187 0.106 0.41 0.168 0.648 0.168s0.461-0.062 0.655-0.172l-0.007 0.003c0.517-0.288 12.685-7.177 12.685-18.499 0-7.364-5.97-13.333-13.333-13.333s-13.333 5.97-13.333 13.333v0zM16 2.667c5.888 0.007 10.66 4.778 10.667 10.666v0.001c0 8.365-8.267 14.24-10.667 15.773-2.4-1.533-10.667-7.408-10.667-15.773 0.007-5.888 4.778-10.66 10.666-10.667h0.001z"></path>
<path d="M16 20c3.682 0 6.667-2.985 6.667-6.667s-2.985-6.667-6.667-6.667c-3.682 0-6.667 2.985-6.667 6.667v0c0.005 3.68 2.987 6.662 6.666 6.667h0zM16 9.333c2.209 0 4 1.791 4 4s-1.791 4-4 4c-2.209 0-4-1.791-4-4v0c0-2.209 1.791-4 4-4v0z"></path>
</symbol>


</defs>

</svg>